HIERARCHY
ROOT Hips
{
    OFFSET 0.000000 0.000000 0.000000
    CHANNELS 6 Xposition Yposition Zposition Zrotation Xrotation Yrotation
    JOINT Spine
    {
        OFFSET 0.000001 7.292995 0.000000
        CHANNELS 3 Zrotation Xrotation Yrotation
        JOINT Spine1
        {
            OFFSET -0.000000 20.255388 0.000001
            CHANNELS 3 Zrotation Xrotation Yrotation
            JOINT Neck
            {
                OFFSET 0.000001 20.786594 0.000000
                CHANNELS 3 Zrotation Xrotation Yrotation
                JOINT Head
                {
                    OFFSET 0.000003 12.530788 1.776080
                    CHANNELS 3 Zrotation Xrotation Yrotation
                    End Site
                    {
                        OFFSET 0.000000 17.760757 0.000000
                    }
                }
            }
            JOINT LeftShoulder
            {
                OFFSET 3.550532 15.465697 -0.908801
                CHANNELS 3 Zrotation Xrotation Yrotation
                JOINT LeftArm
                {
                    OFFSET 12.513301 -0.000005 0.000001
                    CHANNELS 3 Zrotation Xrotation Yrotation
                    JOINT LeftForeArm
                    {
                        OFFSET 24.225992 0.000005 0.000000
                        CHANNELS 3 Zrotation Xrotation Yrotation
                        JOINT LeftHand
                        {
                            OFFSET 20.711395 -0.000004 0.000000
                            CHANNELS 3 Zrotation Xrotation Yrotation
                            JOINT LeftHandThumb1
                            {
                                OFFSET 2.121964 -2.411326 3.375861
                                CHANNELS 3 Zrotation Xrotation Yrotation
                                JOINT LeftHandThumb2
                                {
                                    OFFSET 2.803212 -0.000001 -0.000002
                                    CHANNELS 3 Zrotation Xrotation Yrotation
                                    JOINT LeftHandThumb3
                                    {
                                        OFFSET 2.395929 0.000000 0.000000
                                        CHANNELS 3 Zrotation Xrotation Yrotation
                                        End Site
                                        {
                                            OFFSET 2.127676 0.000000 0.000000
                                        }
                                    }
                                }
                            }
                            JOINT LeftHandIndex1
                            {
                                OFFSET 8.680776 0.000004 3.375861
                                CHANNELS 3 Zrotation Xrotation Yrotation
                                JOINT LeftHandIndex2
                                {
                                    OFFSET 4.218180 -0.000002 0.000001
                                    CHANNELS 3 Zrotation Xrotation Yrotation
                                    JOINT LeftHandIndex3
                                    {
                                        OFFSET 2.109090 0.000001 -0.000000
                                        CHANNELS 3 Zrotation Xrotation Yrotation
                                        End Site
                                        {
                                            OFFSET 1.872952 0.000000 0.000000
                                        }
                                    }
                                }
                            }
                            JOINT LeftHandMiddle1
                            {
                                OFFSET 8.680775 0.000001 1.118862
                                CHANNELS 3 Zrotation Xrotation Yrotation
                                JOINT LeftHandMiddle2
                                {
                                    OFFSET 4.640000 0.000002 -0.000000
                                    CHANNELS 3 Zrotation Xrotation Yrotation
                                    JOINT LeftHandMiddle3
                                    {
                                        OFFSET 2.530906 0.000005 0.000000
                                        CHANNELS 3 Zrotation Xrotation Yrotation
                                        End Site
                                        {
                                            OFFSET 2.247544 0.000000 0.000000
                                        }
                                    }
                                }
                            }
                            JOINT LeftHandRing1
                            {
                                OFFSET 8.198514 -0.000004 -1.118859
                                CHANNELS 3 Zrotation Xrotation Yrotation
                                JOINT LeftHandRing2
                                {
                                    OFFSET 4.218182 -0.000003 -0.000001
                                    CHANNELS 3 Zrotation Xrotation Yrotation
                                    JOINT LeftHandRing3
                                    {
                                        OFFSET 2.109086 0.000004 0.000001
                                        CHANNELS 3 Zrotation Xrotation Yrotation
                                        End Site
                                        {
                                            OFFSET 1.872952 0.000000 0.000000
                                        }
                                    }
                                }
                            }
                            JOINT LeftHandPinky1
                            {
                                OFFSET 7.716242 0.000005 -3.375859
                                CHANNELS 3 Zrotation Xrotation Yrotation
                                JOINT LeftHandPinky2
                                {
                                    OFFSET 3.374535 0.000004 0.000002
                                    CHANNELS 3 Zrotation Xrotation Yrotation
                                    JOINT LeftHandPinky3
                                    {
                                        OFFSET 1.687275 0.000002 -0.000001
                                        CHANNELS 3 Zrotation Xrotation Yrotation
                                        End Site
                                        {
                                            OFFSET 1.498360 0.000000 0.000000
                                        }
                                    }
                                }
                            }
                        }
                    }
                }
            }
            JOINT RightShoulder
            {
                OFFSET -3.550531 15.465694 -0.908802
                CHANNELS 3 Zrotation Xrotation Yrotation
                JOINT RightArm
                {
                    OFFSET -12.513298 -0.000004 0.000001
                    CHANNELS 3 Zrotation Xrotation Yrotation
                    JOINT RightForeArm
                    {
                        OFFSET -24.225996 -0.000002 -0.000000
                        CHANNELS 3 Zrotation Xrotation Yrotation
                        JOINT RightHand
                        {
                            OFFSET -20.711401 0.000005 0.000001
                            CHANNELS 3 Zrotation Xrotation Yrotation
                            JOINT RightHandThumb1
                            {
                                OFFSET -2.121970 -2.411334 3.375861
                                CHANNELS 3 Zrotation Xrotation Yrotation
                                JOINT RightHandThumb2
                                {
                                    OFFSET -2.803210 0.000003 -0.000004
                                    CHANNELS 3 Zrotation Xrotation Yrotation
                                    JOINT RightHandThumb3
                                    {
                                        OFFSET -2.395930 -0.000001 0.000002
                                        CHANNELS 3 Zrotation Xrotation Yrotation
                                        End Site
                                        {
                                            OFFSET -2.127676 0.000000 0.000000
                                        }
                                    }
                                }
                            }
                            JOINT RightHandIndex1
                            {
                                OFFSET -8.680779 0.000001 3.375860
                                CHANNELS 3 Zrotation Xrotation Yrotation
                                JOINT RightHandIndex2
                                {
                                    OFFSET -4.218180 0.000000 -0.000000
                                    CHANNELS 3 Zrotation Xrotation Yrotation
                                    JOINT RightHandIndex3
                                    {
                                        OFFSET -2.109090 0.000001 -0.000000
                                        CHANNELS 3 Zrotation Xrotation Yrotation
                                        End Site
                                        {
                                            OFFSET -1.872952 0.000000 0.000000
                                        }
                                    }
                                }
                            }
                            JOINT RightHandMiddle1
                            {
                                OFFSET -8.680780 0.000001 1.118860
                                CHANNELS 3 Zrotation Xrotation Yrotation
                                JOINT RightHandMiddle2
                                {
                                    OFFSET -4.640000 -0.000002 0.000001
                                    CHANNELS 3 Zrotation Xrotation Yrotation
                                    JOINT RightHandMiddle3
                                    {
                                        OFFSET -2.530910 0.000001 -0.000000
                                        CHANNELS 3 Zrotation Xrotation Yrotation
                                        End Site
                                        {
                                            OFFSET -2.247544 0.000000 0.000000
                                        }
                                    }
                                }
                            }
                            JOINT RightHandRing1
                            {
                                OFFSET -8.198519 0.000005 -1.118860
                                CHANNELS 3 Zrotation Xrotation Yrotation
                                JOINT RightHandRing2
                                {
                                    OFFSET -4.218180 -0.000006 0.000000
                                    CHANNELS 3 Zrotation Xrotation Yrotation
                                    JOINT RightHandRing3
                                    {
                                        OFFSET -2.109090 0.000001 -0.000000
                                        CHANNELS 3 Zrotation Xrotation Yrotation
                                        End Site
                                        {
                                            OFFSET -1.872952 0.000000 0.000000
                                        }
                                    }
                                }
                            }
                            JOINT RightHandPinky1
                            {
                                OFFSET -7.716248 -0.000002 -3.375859
                                CHANNELS 3 Zrotation Xrotation Yrotation
                                JOINT RightHandPinky2
                                {
                                    OFFSET -3.374540 0.000000 0.000000
                                    CHANNELS 3 Zrotation Xrotation Yrotation
                                    JOINT RightHandPinky3
                                    {
                                        OFFSET -1.687270 0.000004 0.000001
                                        CHANNELS 3 Zrotation Xrotation Yrotation
                                        End Site
                                        {
                                            OFFSET -1.498360 0.000000 0.000000
                                        }
                                    }
                                }
                            }
                        }
                    }
                }
            }
        }
    }
    JOINT LeftUpLeg
    {
        OFFSET 8.880376 -0.000000 -0.000000
        CHANNELS 3 Zrotation Xrotation Yrotation
        JOINT LeftLeg
        {
            OFFSET -0.000001 -40.387405 -0.000001
            CHANNELS 3 Zrotation Xrotation Yrotation
            JOINT LeftFoot
            {
                OFFSET -0.000001 -36.911297 -0.000001
                CHANNELS 3 Zrotation Xrotation Yrotation
                JOINT LeftToeBase
                {
                    OFFSET -0.000002 -5.772240 13.320604
                    CHANNELS 3 Zrotation Xrotation Yrotation
                    End Site
                    {
                        OFFSET 0.000000 0.000000 3.552151
                    }
                }
            }
        }
    }
    JOINT RightUpLeg
    {
        OFFSET -8.880376 0.000000 0.000000
        CHANNELS 3 Zrotation Xrotation Yrotation
        JOINT RightLeg
        {
            OFFSET -0.000001 -40.387390 0.000000
            CHANNELS 3 Zrotation Xrotation Yrotation
            JOINT RightFoot
            {
                OFFSET 0.000002 -36.911297 -0.000001
                CHANNELS 3 Zrotation Xrotation Yrotation
                JOINT RightToeBase
                {
                    OFFSET 0.000001 -5.772238 13.320600
                    CHANNELS 3 Zrotation Xrotation Yrotation
                    End Site
                    {
                        OFFSET 0.000000 0.000000 3.552151
                    }
                }
            }
        }
    }
}
MOTION
Frames: 4
Frame Time: 0.013889
21.042860    82.763451    -6.785806    -5.220585    5.250817    1.063810    1.004989    -15.934484    3.656063    -4.322138    12.162809    4.354585    3.834685    -7.754975    -4.847847    0.644094    5.844089    -5.436554    -4.057914    0.634974    -3.837038    -43.406101    10.795835    -23.050005    -80.921890    16.060476    -92.531067    -47.540516    -1.201894    3.362612    37.709705    28.230072    -48.903206    -13.001698    -0.471425    23.312973    -0.000000    0.000000    -0.000000    -22.748135    16.680544    -2.202148    -21.740871    -0.000003    -0.000001    -21.740879    0.000006    0.000025    -17.527212    8.588539    -1.832141    -17.324419    -0.000004    0.000006    -17.324429    -0.000003    0.000020    -15.295842    -8.686142    -1.230054    -15.116184    -0.000007    -0.000003    -15.116194    -0.000002    0.000017    -13.548302    -17.530142    -1.881173    -12.907971    0.000001    -0.000005    -12.907970    -0.000001    0.000005    -9.042473    1.829755    3.884984    5.446757    38.478718    33.867649    72.478218    22.719519    96.952126    -34.214878    -24.694815    -24.546070    -45.535080    24.143072    43.855247    11.513138    0.170144    -23.316904    -0.000000    0.000000    -0.000000    -6.022324    17.906977    -3.871683    -5.729575    -0.000003    -0.000001    -5.729590    0.000000    -0.000001    -1.417862    8.997293    -2.643009    -1.400399    -0.000003    0.000001    -1.400415    0.000002    -0.000002    0.773710    -8.999204    -2.153554    0.764180    0.000002    0.000001    0.764166    -0.000000    -0.000001    3.079196    -17.975643    -3.598060    2.928756    0.000003    -0.000001    2.928769    -0.000010    0.000001    6.092103    -10.630256    -1.046652    -0.000000    25.583023    0.000000    5.233758    -12.907961    -1.715602    0.000000    2.157299    0.000000    -3.367536    -25.198215    -13.543728    -0.000001    50.233055    0.000001    14.408476    -3.499390    7.832476    0.000002    -8.553264    -0.000001    
21.038298    82.626045    -6.770358    -4.997755    5.300100    0.829687    1.005445    -15.988604    3.645689    -4.528327    12.216063    4.391710    2.972661    -7.670013    -4.870225    0.380664    5.919212    -5.315300    -4.836906    0.895276    -4.058852    -44.461136    11.506392    -22.667721    -81.665688    14.624973    -92.118355    -47.838505    -1.275238    3.029910    38.018730    27.935377    -48.988174    -13.193593    -0.554112    23.311262    -0.000000    0.000000    -0.000000    -24.353279    16.489155    -3.440166    -23.291094    -0.000003    -0.000001    -23.291096    0.000000    -0.000001    -19.070101    8.513522    -2.450805    -18.851988    0.000000    -0.000002    -18.851988    0.000002    0.000006    -16.828106    -8.620523    -1.520758    -16.632441    0.000000    0.000000    -16.632437    -0.000002    0.000014    -15.121408    -17.415005    -2.473847    -14.412885    0.000007    0.000003    -14.412883    -0.000008    0.000013    -9.944221    1.579234    3.594717    4.866972    37.399391    34.782356    72.572701    24.141829    97.315941    -35.165688    -24.690577    -24.025734    -45.200672    24.493042    43.592194    11.624801    0.122024    -23.317163    -0.000000    0.000000    -0.000000    -6.022323    17.906971    -3.871686    -5.729579    -0.000003    -0.000004    -5.729584    0.000002    0.000002    -2.301068    8.992869    -2.504920    -2.272763    -0.000003    -0.000002    -2.272762    0.000000    -0.000001    -0.551140    -8.999599    -2.158747    -0.544346    -0.000000    0.000002    -0.544346    -0.000002    -0.000001    1.244961    -17.995985    -3.760368    1.184061    0.000001    -0.000000    1.184057    -0.000000    -0.000003    5.965540    -11.085283    -0.540331    -0.000000    26.530422    -0.000000    5.301864    -13.183091    -1.935241    -0.000000    2.113643    -0.000000    -4.483467    -25.833460    -12.495525    0.000000    50.761688    -0.000002    13.171539    -5.062649    6.027797    -0.000002    -7.875914    0.000002    
21.038893    82.514137    -6.741820    -4.798731    5.349168    0.684460    1.003873    -16.046873    3.627167    -4.677477    12.231673    4.406630    2.314952    -7.562154    -4.901608    0.203560    5.978065    -5.237893    -5.479236    1.084964    -4.197481    -45.151989    12.076229    -22.374868    -81.923210    13.607799    -91.912262    -47.807392    -1.489984    2.970360    38.204994    27.729317    -49.126881    -13.361754    -0.626569    23.309519    -0.000000    0.000000    -0.000000    -25.264458    16.374874    -4.273403    -24.172497    0.000002    0.000007    -24.172495    0.000001    -0.000006    -20.056606    8.462344    -2.850699    -19.829039    0.000006    0.000003    -19.829037    -0.000005    0.000009    -17.863497    -8.572719    -1.696860    -17.657309    0.000009    0.000007    -17.657309    -0.000003    -0.000002    -16.241428    -17.325411    -2.850878    -15.485576    0.000010    0.000005    -15.485573    0.000000    0.000000    -10.578605    1.340933    3.340292    4.508670    36.540924    35.376114    72.739845    25.211969    97.539284    -35.614742    -24.976181    -23.905523    -44.977760    24.726076    43.409927    11.694948    0.091791    -23.317307    -0.000000    0.000000    -0.000000    -6.022321    17.906981    -3.871682    -5.729582    0.000000    0.000000    -5.729563    -0.000000    0.000002    -2.873930    8.988872    -2.415390    -2.838598    -0.000003    -0.000001    -2.838608    0.000003    0.000002    -1.410474    -8.997316    -2.144093    -1.393107    -0.000003    -0.000000    -1.393116    0.000005    -0.000000    0.055073    -17.999950    -3.829922    0.052383    -0.000001    -0.000002    0.052380    0.000001    0.000001    5.825903    -11.403915    -0.239502    0.000000    27.192127    -0.000000    5.525401    -13.271415    -2.078820    0.000001    1.981347    -0.000000    -5.337188    -26.168579    -11.644199    -0.000001    50.849991    -0.000000    12.217007    -5.909009    4.632286    0.000000    -7.306432    -0.000001    
21.027206    82.405014    -6.682389    -4.595208    5.374657    0.536151    1.000305    -16.142633    3.593488    -4.826014    12.252837    4.407029    1.668626    -7.431601    -4.911077    0.045590    6.034266    -5.142595    -6.097784    1.314094    -4.312569    -45.804493    12.677040    -22.022112    -81.992477    12.563950    -91.752754    -47.806282    -1.628746    2.721696    38.361965    27.515501    -49.362724    -13.543051    -0.704655    23.307413    -0.000000    0.000000    -0.000000    -26.051168    16.272930    -5.018229    -24.934317    0.000014    0.000001    -24.934340    -0.000002    0.000008    -20.974922    8.412468    -3.198925    -20.738752    0.000006    0.000003    -20.738770    0.000006    0.000004    -18.857021    -8.524247    -1.875417    -18.640974    0.000003    0.000001    -18.640976    -0.000004    0.000001    -17.344616    -17.230993    -3.240293    -16.543194    0.000013    0.000005    -16.543194    -0.000004    0.000003    -11.115006    1.107234    3.080434    4.254011    35.652237    35.910034    72.932220    26.203863    97.720634    -36.126320    -25.299601    -23.947294    -44.809841    24.878334    43.320934    11.730950    0.076270    -23.317356    -0.000000    0.000000    -0.000000    -6.022330    17.906971    -3.871683    -5.729568    -0.000000    0.000004    -5.729578    0.000003    0.000000    -3.399428    8.984428    -2.333306    -3.357670    0.000000    -0.000000    -3.357669    0.000002    -0.000001    -2.198759    -8.993488    -2.107571    -2.171717    0.000002    0.000001    -2.171714    0.000000    0.000000    -1.036479    -17.997200    -3.847650    -0.985765    0.000002    0.000000    -0.985765    0.000003    0.000002    5.685219    -11.665318    0.079847    0.000000    27.820604    0.000000    5.807798    -13.429942    -2.141651    -0.000000    1.747584    -0.000000    -6.201247    -26.392952    -10.825092    -0.000002    50.753471    0.000000    11.127025    -6.696070    3.355344    -0.000000    -6.865299    -0.000001    
